<svg width="195" height="32" viewBox="0 0 195 32" fill="none" xmlns="http://www.w3.org/2000/svg">
<g clip-path="url(#clip0_90_9298)">
<path d="M1.28 5.9519C0.573216 5.9519 0 6.52496 0 7.2319V24.7679C0 25.4748 0.573504 26.0479 1.28 26.0479H30.72C31.4268 26.0479 32 25.4748 32 24.7679V7.2319C32 6.52499 31.4265 5.9519 30.72 5.9519H1.28ZM19.112 11.9409C19.8908 11.9409 20.515 12.1129 20.913 12.2729L20.641 13.9839L20.461 13.8929C20.0902 13.7329 19.614 13.579 18.957 13.5899C18.1706 13.5899 17.807 13.9407 17.807 14.2689C17.8024 14.6388 18.2318 14.8827 18.934 15.2479C20.0929 15.8114 20.6286 16.4947 20.621 17.3929C20.6054 19.0318 19.2347 20.0909 17.123 20.0909C16.2221 20.081 15.3542 19.8903 14.885 19.6699L15.167 17.9019L15.426 18.0279C16.0858 18.3227 16.513 18.4419 17.317 18.4419C17.8944 18.4419 18.5141 18.2002 18.519 17.6709C18.5228 17.3253 18.26 17.0789 17.478 16.6919C16.716 16.3142 15.7058 15.6814 15.717 14.5469C15.7289 13.0122 17.127 11.9409 19.112 11.9409ZM2.82998 12.1919H6.07299C6.5097 12.2084 6.86227 12.349 6.984 12.8229L7.68301 16.4309C7.6831 16.4312 7.68288 16.4325 7.68301 16.4329L7.89299 17.5139L9.86199 12.1919H11.992L8.82598 19.9819L6.69798 19.9839L5.004 13.6979C6.01194 14.2319 6.87005 14.8497 7.36701 15.6999C7.23888 15.4309 7.07005 15.1272 6.85402 14.8279C6.60243 14.4794 6.0591 14.0293 5.832 13.8379C5.04064 13.1708 3.96592 12.632 2.80499 12.3469L2.82998 12.1919ZM12.839 12.2009H14.922L13.619 19.9789H11.536L12.839 12.2009ZM24.604 12.2009H26.182L27.834 19.9789H25.94C25.94 19.9789 25.7521 19.0853 25.691 18.8129C25.3933 18.8129 23.3113 18.8099 23.077 18.8099C22.9977 19.0205 22.647 19.9789 22.647 19.9789H20.504L23.535 12.8469C23.7496 12.3401 24.1154 12.2009 24.604 12.2009ZM24.759 14.2929C24.6565 14.5822 24.4781 15.0494 24.49 15.0289C24.49 15.0289 23.8488 16.739 23.681 17.1829L25.366 17.1819C25.2095 16.4402 25.0528 15.6986 24.896 14.957L24.759 14.293V14.2929Z" fill="black"/>
</g>
<path d="M71.12 13.04L68.688 13.36L70.544 15.04L69.056 16.128L67.968 13.92L67.04 16.144L65.52 15.056L67.232 13.36L64.88 13.04L65.376 11.424L67.504 12.48L67.072 10.08H68.88L68.4 12.48L70.576 11.328L71.12 13.04ZM79.12 13.04L76.688 13.36L78.544 15.04L77.056 16.128L75.968 13.92L75.04 16.144L73.52 15.056L75.232 13.36L72.88 13.04L73.376 11.424L75.504 12.48L75.072 10.08H76.88L76.4 12.48L78.576 11.328L79.12 13.04ZM87.12 13.04L84.688 13.36L86.544 15.04L85.056 16.128L83.968 13.92L83.04 16.144L81.52 15.056L83.232 13.36L80.88 13.04L81.376 11.424L83.504 12.48L83.072 10.08H84.88L84.4 12.48L86.576 11.328L87.12 13.04ZM95.12 13.04L92.688 13.36L94.544 15.04L93.056 16.128L91.968 13.92L91.04 16.144L89.52 15.056L91.232 13.36L88.88 13.04L89.376 11.424L91.504 12.48L91.072 10.08H92.88L92.4 12.48L94.576 11.328L95.12 13.04ZM109.317 12.544L104.325 17.776H109.317V12.544ZM109.109 10.368H111.333V17.776H112.821V19.536H111.333V22H109.317V19.536H102.053V17.776L109.109 10.368ZM117.248 14.976H118.944C119.371 14.976 119.76 14.9547 120.112 14.912C120.464 14.8587 120.763 14.7787 121.008 14.672C121.253 14.5547 121.44 14.4 121.568 14.208C121.707 14.0053 121.776 13.7493 121.776 13.44C121.776 13.152 121.707 12.912 121.568 12.72C121.429 12.528 121.237 12.3733 120.992 12.256C120.757 12.128 120.475 12.0373 120.144 11.984C119.813 11.9307 119.451 11.904 119.056 11.904C118.448 11.904 117.947 11.968 117.552 12.096C117.168 12.2133 116.864 12.352 116.64 12.512C116.416 12.672 116.261 12.8373 116.176 13.008C116.091 13.168 116.048 13.2907 116.048 13.376H114.032C114.032 13.2373 114.053 13.0613 114.096 12.848C114.139 12.6347 114.224 12.4053 114.352 12.16C114.48 11.9147 114.656 11.6693 114.88 11.424C115.104 11.1787 115.403 10.96 115.776 10.768C116.149 10.5653 116.597 10.4 117.12 10.272C117.653 10.144 118.288 10.08 119.024 10.08C120.613 10.08 121.824 10.3787 122.656 10.976C123.488 11.5733 123.904 12.3733 123.904 13.376C123.904 13.7707 123.84 14.112 123.712 14.4C123.595 14.6773 123.451 14.912 123.28 15.104C123.109 15.296 122.928 15.4507 122.736 15.568C122.555 15.6747 122.395 15.7547 122.256 15.808C122.405 15.872 122.587 15.968 122.8 16.096C123.024 16.224 123.237 16.4 123.44 16.624C123.653 16.8373 123.829 17.1093 123.968 17.44C124.117 17.76 124.192 18.1547 124.192 18.624C124.192 19.1253 124.08 19.6 123.856 20.048C123.643 20.4853 123.323 20.8747 122.896 21.216C122.469 21.5467 121.931 21.808 121.28 22C120.64 22.192 119.899 22.288 119.056 22.288C117.947 22.288 117.051 22.1547 116.368 21.888C115.685 21.6107 115.152 21.28 114.768 20.896C114.395 20.5013 114.139 20.096 114 19.68C113.861 19.2533 113.787 18.8907 113.776 18.592H115.904C115.947 18.816 116.032 19.04 116.16 19.264C116.299 19.4773 116.485 19.6747 116.72 19.856C116.965 20.0373 117.264 20.1867 117.616 20.304C117.968 20.4107 118.384 20.464 118.864 20.464C119.301 20.464 119.712 20.4267 120.096 20.352C120.48 20.2773 120.816 20.16 121.104 20C121.392 19.8293 121.621 19.6107 121.792 19.344C121.963 19.0773 122.053 18.7573 122.064 18.384C122.064 18.2027 122.021 18.0213 121.936 17.84C121.861 17.648 121.723 17.4773 121.52 17.328C121.317 17.168 121.045 17.04 120.704 16.944C120.363 16.848 119.936 16.8 119.424 16.8H117.248V14.976ZM125.227 20.4L131.131 16.816C131.44 16.624 131.739 16.432 132.027 16.24C132.326 16.048 132.587 15.8453 132.811 15.632C133.046 15.408 133.232 15.1627 133.371 14.896C133.51 14.6293 133.579 14.3307 133.579 14C133.579 13.648 133.52 13.3547 133.403 13.12C133.286 12.8747 133.131 12.6773 132.939 12.528C132.758 12.368 132.55 12.2453 132.315 12.16C132.08 12.0747 131.851 12.016 131.627 11.984C131.414 11.9413 131.211 11.92 131.019 11.92C130.827 11.9093 130.683 11.904 130.587 11.904C130.096 11.904 129.675 11.9627 129.323 12.08C128.971 12.1973 128.672 12.3627 128.427 12.576C128.182 12.7787 127.984 13.0187 127.835 13.296C127.686 13.5627 127.574 13.8507 127.499 14.16H125.371C125.371 13.744 125.462 13.3013 125.643 12.832C125.835 12.352 126.139 11.9093 126.555 11.504C126.971 11.0987 127.504 10.7627 128.155 10.496C128.816 10.2187 129.622 10.08 130.571 10.08C131.232 10.08 131.872 10.144 132.491 10.272C133.11 10.4 133.654 10.6187 134.123 10.928C134.603 11.2373 134.987 11.648 135.275 12.16C135.563 12.6613 135.707 13.2853 135.707 14.032C135.707 14.512 135.627 14.9493 135.467 15.344C135.318 15.7387 135.11 16.1013 134.843 16.432C134.587 16.752 134.283 17.0453 133.931 17.312C133.59 17.568 133.222 17.808 132.827 18.032L129.211 20.08V20.112H135.563V22H125.227V20.4ZM139.206 11.744C139.835 11.6587 140.417 11.4987 140.95 11.264C141.483 11.0293 141.979 10.6347 142.438 10.08H143.622V22H141.606V13.056H139.206V11.744Z" fill="#112211"/>
<path d="M160.634 21.584C162.902 21.584 164.554 19.722 164.554 16.6C164.554 13.478 162.902 11.616 160.634 11.616C158.366 11.616 156.728 13.478 156.728 16.6C156.728 19.722 158.366 21.584 160.634 21.584ZM160.634 20.66C158.926 20.66 157.75 19.218 157.75 16.6C157.75 13.982 158.926 12.54 160.634 12.54C162.342 12.54 163.518 13.982 163.518 16.6C163.518 19.218 162.342 20.66 160.634 20.66ZM167.272 20.604L170.604 17.328C171.92 16.04 172.214 15.2 172.214 14.262C172.214 12.624 170.954 11.616 168.966 11.616C167.468 11.616 166.25 12.12 165.494 13.016L166.208 13.632C166.852 12.89 167.734 12.54 168.882 12.54C170.38 12.54 171.178 13.24 171.178 14.374C171.178 15.046 170.968 15.704 169.862 16.796L165.788 20.786V21.5H172.662V20.604H167.272ZM172.986 22.9H173.896L178.516 9.712H177.606L172.986 22.9ZM180.055 20.604L183.387 17.328C184.703 16.04 184.997 15.2 184.997 14.262C184.997 12.624 183.737 11.616 181.749 11.616C180.251 11.616 179.033 12.12 178.277 13.016L178.991 13.632C179.635 12.89 180.517 12.54 181.665 12.54C183.163 12.54 183.961 13.24 183.961 14.374C183.961 15.046 183.751 15.704 182.645 16.796L178.571 20.786V21.5H185.445V20.604H180.055ZM186.376 11.7V14.43H187.37V12.596H192.41L188.378 21.5H189.47L193.572 12.414V11.7H186.376Z" fill="#112211"/>
<defs>
<clipPath id="clip0_90_9298">
<rect width="32" height="32" fill="white"/>
</clipPath>
</defs>
</svg>
